<?xml version="1.0" encoding="UTF-8"?>
<svg width="17px" height="13px" viewBox="0 0 17 13" version="1.1" xmlns="http://www.w3.org/2000/svg" xmlns:xlink="http://www.w3.org/1999/xlink">
    <!-- Generator: Sketch 52.5 (67469) - http://www.bohemiancoding.com/sketch -->
    <title>Shape</title>
    <desc>Created with Sketch.</desc>
    <g id="Site" stroke="none" stroke-width="1" fill="none" fill-rule="evenodd">
        <g id="Fale-Conosco" transform="translate(-211.000000, -524.000000)" fill="#009CDD" fill-rule="nonzero">
            <g id="email-telefone" transform="translate(211.000000, 484.000000)">
                <g id="mail-black-envelope-symbol" transform="translate(0.000000, 40.000000)">
                    <path d="M17,10.8332738 C17,11.2132627 16.8951714,11.5655303 16.7272424,11.8754658 L11.3596456,5.75213241 L16.6690471,1.01579245 C16.8755861,1.34998406 17,1.74254757 17,2.16676193 L17,10.8332738 Z M8.50001752,6.86394913 L15.8878776,0.272997571 C15.5847085,0.103776229 15.2433148,0 14.8750482,0 L2.12498686,0 C1.7562648,0 1.41476595,0.103776229 1.11282308,0.272997571 L8.50001752,6.86394913 Z M10.5596967,6.46520549 L8.84960976,7.99180562 C8.74958111,8.0806495 8.62502705,8.12501786 8.50001752,8.12501786 C8.37493791,8.12501786 8.25038385,8.0806495 8.15035521,7.99180562 L6.43988286,6.46513404 L1.00438572,12.6667372 C1.33018831,12.875147 1.71201395,13 2.12495183,13 L14.8750482,13 C15.287916,13 15.6699168,12.875147 15.9956143,12.6667372 L10.5596967,6.46520549 Z M0.331022998,1.01575673 C0.124519024,1.34994834 0,1.74251184 0,2.16676193 L0,10.8333095 C0,11.2132984 0.104338113,11.565566 0.27289777,11.8755015 L5.63986389,5.75109643 L0.331022998,1.01575673 Z" id="Shape"></path>
                </g>
            </g>
        </g>
    </g>
</svg>