<?xml version="1.0" encoding="UTF-8"?>
<svg width="13px" height="13px" viewBox="0 0 13 13" version="1.1" xmlns="http://www.w3.org/2000/svg" xmlns:xlink="http://www.w3.org/1999/xlink">
    <!-- Generator: Sketch 52.5 (67469) - http://www.bohemiancoding.com/sketch -->
    <title>Shape</title>
    <desc>Created with Sketch.</desc>
    <g id="Site" stroke="none" stroke-width="1" fill="none" fill-rule="evenodd">
        <g id="Home" transform="translate(-1131.000000, -41.000000)" fill="#002A68" fill-rule="nonzero">
            <g id="menu" transform="translate(695.000000, 30.000000)">
                <g id="bt-fale-conosco" transform="translate(422.000000, 0.000000)">
                    <path d="M26.9938036,21.2528335 C27.0213504,21.4638763 26.9570369,21.6473722 26.8011329,21.8033212 L24.9707613,23.6198632 C24.8881881,23.7116112 24.7804067,23.7896644 24.6473722,23.8538205 C24.5143377,23.9180665 24.3836193,23.9593531 24.2552172,23.9776802 C24.2460424,23.9776802 24.2184505,23.9800414 24.1725541,23.9846288 C24.1267476,23.9891937 24.0671114,23.9915324 23.993713,23.9915324 C23.819347,23.9915324 23.5371995,23.9617143 23.1472707,23.9020556 C22.7573419,23.842397 22.2802751,23.6955778 21.7160701,23.4616655 C21.1517303,23.2277082 20.5118108,22.8767273 19.7961993,22.4088577 C19.0805878,21.9410106 18.3190573,21.29873 17.5116753,20.4821507 C16.8694397,19.8490899 16.3373015,19.2435534 15.915261,18.6655638 C15.4932204,18.0875292 15.153753,17.5530974 14.8968587,17.0622459 C14.639942,16.5713943 14.4472713,16.1264168 14.3188241,15.7273132 C14.190377,15.3282096 14.1032164,14.9841548 14.0573425,14.6951487 C14.0114685,14.4061427 13.9931189,14.1790665 14.0022937,14.0139202 C14.0114685,13.8487739 14.0160559,13.7570259 14.0160559,13.7386763 C14.0344055,13.6102292 14.0756921,13.4794884 14.1399156,13.3464538 C14.2041392,13.2134193 14.2821249,13.1056155 14.3738729,13.0230423 L16.2042445,11.1926707 C16.3326917,11.0642236 16.4794884,11 16.6446347,11 C16.763907,11 16.8694172,11.0344055 16.9611651,11.1032164 C17.0529131,11.1720274 17.1308988,11.2568943 17.1951224,11.357817 L18.667677,14.1515421 C18.7502502,14.2983388 18.7731872,14.4588978 18.736488,14.6332189 C18.6997888,14.80754 18.621803,14.9543367 18.5025307,15.073609 L17.8281833,15.7479565 C17.8098337,15.7663061 17.7937778,15.7961241 17.7800156,15.8374107 C17.7662534,15.8786973 17.7593723,15.9131028 17.7593723,15.9406272 C17.7960715,16.1332979 17.8786446,16.3534929 18.0070918,16.6012124 C18.1171893,16.8214075 18.286923,17.0897703 18.5162929,17.4063007 C18.7456628,17.7228311 19.071368,18.0875067 19.4934086,18.5003725 C19.9062744,18.9224581 20.2732662,19.250412 20.594384,19.4844143 C20.9154344,19.7182816 21.1838871,19.8903765 21.3994947,20.000474 C21.6151024,20.1105715 21.7802487,20.1770888 21.8949112,20.1999583 L22.0668936,20.2343863 C22.0852432,20.2343863 22.1151288,20.2274827 22.1563704,20.213743 C22.1976569,20.1999583 22.227475,20.1839249 22.2458471,20.1655529 L23.0302696,19.3673457 C23.1955059,19.2205714 23.3880866,19.1471731 23.6083042,19.1471731 C23.7643207,19.1471731 23.8881129,19.174675 23.9798609,19.2297462 L23.9936006,19.2297462 L26.6496813,20.7986362 C26.8424195,20.9179985 26.9570819,21.0693376 26.9938036,21.2528335 Z" id="Shape"></path>
                </g>
            </g>
        </g>
    </g>
</svg>